<svg width="410" height="406" viewBox="0 0 410 406" fill="none" xmlns="http://www.w3.org/2000/svg">
<g filter="url(#filter0_f_8_8)">
<rect x="78.1304" y="78.4367" width="253.065" height="249.563" rx="31" fill="#00BCFF"/>
</g>
<g filter="url(#filter1_b_8_8)">
<g filter="url(#filter2_i_8_8)">
<path d="M76.5933 115.991C76.1819 113.355 75.9674 110.644 75.9674 107.876C75.9674 81.9872 94.7374 61 117.891 61C135.104 61 149.895 72.5989 156.351 89.1879C161.582 84.1385 168.369 81.0898 175.786 81.0898C192.325 81.0898 205.732 96.2473 205.732 114.945C205.732 115.986 205.691 117.016 205.609 118.033C213.564 122.39 219.041 131.532 219.041 142.103C219.041 156.897 208.316 168.89 195.085 168.89H81.9566C68.7257 168.89 58 156.897 58 142.103C58 129.371 65.9446 118.714 76.5933 115.991Z" fill="url(#paint0_linear_8_8)"/>
</g>
</g>
<g filter="url(#filter3_b_8_8)">
<g filter="url(#filter4_i_8_8)">
<path d="M352.674 166.964C353.323 163.275 353.661 159.48 353.661 155.607C353.661 119.373 324.056 90 287.537 90C260.388 90 237.061 106.234 226.877 129.451C218.627 122.384 207.922 118.117 196.223 118.117C170.138 118.117 148.992 139.331 148.992 165.5C148.992 166.957 149.057 168.399 149.186 169.823C136.639 175.92 128 188.714 128 203.51C128 224.215 144.917 241 165.785 241H344.215C365.083 241 382 224.215 382 203.51C382 185.691 369.47 170.775 352.674 166.964Z" fill="url(#paint1_linear_8_8)"/>
</g>
</g>
<g filter="url(#filter5_b_8_8)">
<g filter="url(#filter6_i_8_8)">
<path d="M253.292 261.751C253.839 258.599 254.124 255.357 254.124 252.048C254.124 221.094 229.181 196 198.413 196C175.54 196 155.886 209.868 147.306 229.703C140.355 223.666 131.336 220.021 121.479 220.021C99.5021 220.021 81.6859 238.144 81.6859 260.5C81.6859 261.745 81.7412 262.977 81.8493 264.193C71.2786 269.402 64 280.332 64 292.972C64 310.661 78.2529 325 95.8347 325H246.165C263.747 325 278 310.661 278 292.972C278 277.749 267.443 265.006 253.292 261.751Z" fill="url(#paint2_linear_8_8)"/>
</g>
</g>
<defs>
<filter id="filter0_f_8_8" x="0.130371" y="0.436737" width="409.065" height="405.563" filterUnits="userSpaceOnUse" color-interpolation-filters="sRGB">
<feFlood flood-opacity="0" result="BackgroundImageFix"/>
<feBlend mode="normal" in="SourceGraphic" in2="BackgroundImageFix" result="shape"/>
<feGaussianBlur stdDeviation="39" result="effect1_foregroundBlur_8_8"/>
</filter>
<filter id="filter1_b_8_8" x="31" y="34" width="215.042" height="161.89" filterUnits="userSpaceOnUse" color-interpolation-filters="sRGB">
<feFlood flood-opacity="0" result="BackgroundImageFix"/>
<feGaussianBlur in="BackgroundImage" stdDeviation="13.5"/>
<feComposite in2="SourceAlpha" operator="in" result="effect1_backgroundBlur_8_8"/>
<feBlend mode="normal" in="SourceGraphic" in2="effect1_backgroundBlur_8_8" result="shape"/>
</filter>
<filter id="filter2_i_8_8" x="58" y="61" width="161.042" height="117.89" filterUnits="userSpaceOnUse" color-interpolation-filters="sRGB">
<feFlood flood-opacity="0" result="BackgroundImageFix"/>
<feBlend mode="normal" in="SourceGraphic" in2="BackgroundImageFix" result="shape"/>
<feColorMatrix in="SourceAlpha" type="matrix" values="0 0 0 0 0 0 0 0 0 0 0 0 0 0 0 0 0 0 127 0" result="hardAlpha"/>
<feOffset dy="11"/>
<feGaussianBlur stdDeviation="5"/>
<feComposite in2="hardAlpha" operator="arithmetic" k2="-1" k3="1"/>
<feColorMatrix type="matrix" values="0 0 0 0 1 0 0 0 0 1 0 0 0 0 1 0 0 0 1 0"/>
<feBlend mode="normal" in2="shape" result="effect1_innerShadow_8_8"/>
</filter>
<filter id="filter3_b_8_8" x="101" y="63" width="308" height="205" filterUnits="userSpaceOnUse" color-interpolation-filters="sRGB">
<feFlood flood-opacity="0" result="BackgroundImageFix"/>
<feGaussianBlur in="BackgroundImage" stdDeviation="13.5"/>
<feComposite in2="SourceAlpha" operator="in" result="effect1_backgroundBlur_8_8"/>
<feBlend mode="normal" in="SourceGraphic" in2="effect1_backgroundBlur_8_8" result="shape"/>
</filter>
<filter id="filter4_i_8_8" x="128" y="90" width="254" height="161" filterUnits="userSpaceOnUse" color-interpolation-filters="sRGB">
<feFlood flood-opacity="0" result="BackgroundImageFix"/>
<feBlend mode="normal" in="SourceGraphic" in2="BackgroundImageFix" result="shape"/>
<feColorMatrix in="SourceAlpha" type="matrix" values="0 0 0 0 0 0 0 0 0 0 0 0 0 0 0 0 0 0 127 0" result="hardAlpha"/>
<feOffset dy="11"/>
<feGaussianBlur stdDeviation="5"/>
<feComposite in2="hardAlpha" operator="arithmetic" k2="-1" k3="1"/>
<feColorMatrix type="matrix" values="0 0 0 0 1 0 0 0 0 1 0 0 0 0 1 0 0 0 1 0"/>
<feBlend mode="normal" in2="shape" result="effect1_innerShadow_8_8"/>
</filter>
<filter id="filter5_b_8_8" x="37" y="169" width="268" height="183" filterUnits="userSpaceOnUse" color-interpolation-filters="sRGB">
<feFlood flood-opacity="0" result="BackgroundImageFix"/>
<feGaussianBlur in="BackgroundImage" stdDeviation="13.5"/>
<feComposite in2="SourceAlpha" operator="in" result="effect1_backgroundBlur_8_8"/>
<feBlend mode="normal" in="SourceGraphic" in2="effect1_backgroundBlur_8_8" result="shape"/>
</filter>
<filter id="filter6_i_8_8" x="64" y="196" width="214" height="139" filterUnits="userSpaceOnUse" color-interpolation-filters="sRGB">
<feFlood flood-opacity="0" result="BackgroundImageFix"/>
<feBlend mode="normal" in="SourceGraphic" in2="BackgroundImageFix" result="shape"/>
<feColorMatrix in="SourceAlpha" type="matrix" values="0 0 0 0 0 0 0 0 0 0 0 0 0 0 0 0 0 0 127 0" result="hardAlpha"/>
<feOffset dy="11"/>
<feGaussianBlur stdDeviation="5"/>
<feComposite in2="hardAlpha" operator="arithmetic" k2="-1" k3="1"/>
<feColorMatrix type="matrix" values="0 0 0 0 1 0 0 0 0 1 0 0 0 0 1 0 0 0 1 0"/>
<feBlend mode="normal" in2="shape" result="effect1_innerShadow_8_8"/>
</filter>
<linearGradient id="paint0_linear_8_8" x1="208.798" y1="159.257" x2="32.7712" y2="42.6156" gradientUnits="userSpaceOnUse">
<stop stop-color="white"/>
<stop offset="1" stop-color="white" stop-opacity="0.58"/>
</linearGradient>
<linearGradient id="paint1_linear_8_8" x1="144.155" y1="227.518" x2="400.662" y2="35.9735" gradientUnits="userSpaceOnUse">
<stop stop-color="white"/>
<stop offset="1" stop-color="white" stop-opacity="0.58"/>
</linearGradient>
<linearGradient id="paint2_linear_8_8" x1="77.6113" y1="313.482" x2="295.864" y2="152.752" gradientUnits="userSpaceOnUse">
<stop stop-color="white"/>
<stop offset="1" stop-color="white" stop-opacity="0.58"/>
</linearGradient>
</defs>
</svg>
